<?xml version="1.0" encoding="UTF-8" standalone="no"?><svg xmlns="http://www.w3.org/2000/svg" xmlns:xlink="http://www.w3.org/1999/xlink" contentScriptType="application/ecmascript" contentStyleType="text/css" height="1292px" preserveAspectRatio="none" style="width:1248px;height:1292px;" version="1.1" viewBox="0 0 1248 1292" width="1248px" zoomAndPan="magnify"><defs><filter height="300%" id="f1gehtex9bwchy" width="300%" x="-1" y="-1"><feGaussianBlur result="blurOut" stdDeviation="2.0"/><feColorMatrix in="blurOut" result="blurOut2" type="matrix" values="0 0 0 0 0 0 0 0 0 0 0 0 0 0 0 0 0 0 .4 0"/><feOffset dx="4.0" dy="4.0" in="blurOut2" result="blurOut3"/><feBlend in="SourceGraphic" in2="blurOut3" mode="normal"/></filter></defs><g><ellipse cx="518.9375" cy="20" fill="#000000" filter="url(#f1gehtex9bwchy)" rx="10" ry="10" style="stroke: none; stroke-width: 1.0;"/><rect fill="#FEFECE" filter="url(#f1gehtex9bwchy)" height="33.9688" rx="12.5" ry="12.5" style="stroke: #A80036; stroke-width: 1.5;" width="179" x="429.4375" y="50"/><text fill="#000000" font-family="sans-serif" font-size="12" lengthAdjust="spacingAndGlyphs" textLength="159" x="439.4375" y="71.1387">Receive package request</text><rect fill="#FEFECE" filter="url(#f1gehtex9bwchy)" height="33.9688" rx="12.5" ry="12.5" style="stroke: #A80036; stroke-width: 1.5;" width="399" x="319.4375" y="103.9688"/><text fill="#000000" font-family="sans-serif" font-size="12" lengthAdjust="spacingAndGlyphs" textLength="379" x="329.4375" y="125.1074">Check if recipe exists in packages/ (py-/r- prefix for Python/R)</text><polygon fill="#FEFECE" filter="url(#f1gehtex9bwchy)" points="478.4375,157.9375,559.4375,157.9375,571.4375,169.9375,559.4375,181.9375,478.4375,181.9375,466.4375,169.9375,478.4375,157.9375" style="stroke: #A80036; stroke-width: 1.5;"/><text fill="#000000" font-family="sans-serif" font-size="11" lengthAdjust="spacingAndGlyphs" textLength="81" x="478.4375" y="173.7456">Recipe exists?</text><text fill="#000000" font-family="sans-serif" font-size="11" lengthAdjust="spacingAndGlyphs" textLength="20" x="446.4375" y="167.3433">yes</text><text fill="#000000" font-family="sans-serif" font-size="11" lengthAdjust="spacingAndGlyphs" textLength="14" x="571.4375" y="167.3433">no</text><polygon fill="#FEFECE" filter="url(#f1gehtex9bwchy)" points="149,191.9375,277,191.9375,289,203.9375,277,215.9375,149,215.9375,137,203.9375,149,191.9375" style="stroke: #A80036; stroke-width: 1.5;"/><text fill="#000000" font-family="sans-serif" font-size="11" lengthAdjust="spacingAndGlyphs" textLength="128" x="149" y="207.7456">Need specific version?</text><text fill="#000000" font-family="sans-serif" font-size="11" lengthAdjust="spacingAndGlyphs" textLength="20" x="117" y="201.3433">yes</text><text fill="#000000" font-family="sans-serif" font-size="11" lengthAdjust="spacingAndGlyphs" textLength="14" x="289" y="201.3433">no</text><rect fill="#FEFECE" filter="url(#f1gehtex9bwchy)" height="33.9688" rx="12.5" ry="12.5" style="stroke: #A80036; stroke-width: 1.5;" width="184" x="23.5" y="225.9375"/><text fill="#000000" font-family="sans-serif" font-size="12" lengthAdjust="spacingAndGlyphs" textLength="164" x="33.5" y="247.0762">Run spack versions {pkg}</text><rect fill="#FEFECE" filter="url(#f1gehtex9bwchy)" height="33.9688" rx="12.5" ry="12.5" style="stroke: #A80036; stroke-width: 1.5;" width="211" x="10" y="294.3086"/><text fill="#000000" font-family="sans-serif" font-size="12" lengthAdjust="spacingAndGlyphs" textLength="191" x="20" y="315.4473">Run spack checksum -b {pkg}</text><rect fill="#FEFECE" filter="url(#f1gehtex9bwchy)" height="33.9688" rx="12.5" ry="12.5" style="stroke: #A80036; stroke-width: 1.5;" width="209" x="11" y="354.4414"/><text fill="#000000" font-family="sans-serif" font-size="12" lengthAdjust="spacingAndGlyphs" textLength="189" x="21" y="375.5801">Modify recipe with new version</text><rect fill="#FEFECE" filter="url(#f1gehtex9bwchy)" height="33.9688" rx="12.5" ry="12.5" style="stroke: #A80036; stroke-width: 1.5;" width="139" x="241" y="225.9375"/><text fill="#000000" font-family="sans-serif" font-size="12" lengthAdjust="spacingAndGlyphs" textLength="119" x="251" y="247.0762">Use existing recipe</text><polygon fill="#FEFECE" filter="url(#f1gehtex9bwchy)" points="213,394.4102,225,406.4102,213,418.4102,201,406.4102,213,394.4102" style="stroke: #A80036; stroke-width: 1.5;"/><rect fill="#FEFECE" filter="url(#f1gehtex9bwchy)" height="33.9688" rx="12.5" ry="12.5" style="stroke: #A80036; stroke-width: 1.5;" width="197" x="726.375" y="240.3398"/><text fill="#000000" font-family="sans-serif" font-size="12" lengthAdjust="spacingAndGlyphs" textLength="177" x="736.375" y="261.4785">Visit and review URL content</text><polygon fill="#FEFECE" filter="url(#f1gehtex9bwchy)" points="762.875,191.9375,886.875,191.9375,898.875,203.9375,886.875,215.9375,762.875,215.9375,750.875,203.9375,762.875,191.9375" style="stroke: #A80036; stroke-width: 1.5;"/><text fill="#000000" font-family="sans-serif" font-size="11" lengthAdjust="spacingAndGlyphs" textLength="20" x="828.875" y="226.1479">yes</text><text fill="#000000" font-family="sans-serif" font-size="11" lengthAdjust="spacingAndGlyphs" textLength="124" x="762.875" y="207.7456">Prompt contains URL?</text><polygon fill="#FEFECE" filter="url(#f1gehtex9bwchy)" points="824.875,298.1133,836.875,310.1133,824.875,322.1133,812.875,310.1133,824.875,298.1133" style="stroke: #A80036; stroke-width: 1.5;"/><polygon fill="#FEFECE" filter="url(#f1gehtex9bwchy)" points="777.375,348.2773,872.375,348.2773,884.375,360.2773,872.375,372.2773,777.375,372.2773,765.375,360.2773,777.375,348.2773" style="stroke: #A80036; stroke-width: 1.5;"/><text fill="#000000" font-family="sans-serif" font-size="11" lengthAdjust="spacingAndGlyphs" textLength="95" x="777.375" y="364.0854">Python package?</text><text fill="#000000" font-family="sans-serif" font-size="11" lengthAdjust="spacingAndGlyphs" textLength="20" x="745.375" y="357.6831">yes</text><text fill="#000000" font-family="sans-serif" font-size="11" lengthAdjust="spacingAndGlyphs" textLength="14" x="884.375" y="357.6831">no</text><rect fill="#FEFECE" filter="url(#f1gehtex9bwchy)" height="33.9688" rx="12.5" ry="12.5" style="stroke: #A80036; stroke-width: 1.5;" width="181" x="556.75" y="382.2773"/><text fill="#000000" font-family="sans-serif" font-size="12" lengthAdjust="spacingAndGlyphs" textLength="161" x="566.75" y="403.416">Run PyPackageCreator.py</text><polygon fill="#FEFECE" filter="url(#f1gehtex9bwchy)" points="575.25,438.4102,719.25,438.4102,731.25,450.4102,719.25,462.4102,575.25,462.4102,563.25,450.4102,575.25,438.4102" style="stroke: #A80036; stroke-width: 1.5;"/><text fill="#000000" font-family="sans-serif" font-size="11" lengthAdjust="spacingAndGlyphs" textLength="144" x="575.25" y="454.2183">PyPI creation successful?</text><text fill="#000000" font-family="sans-serif" font-size="11" lengthAdjust="spacingAndGlyphs" textLength="20" x="543.25" y="447.8159">yes</text><text fill="#000000" font-family="sans-serif" font-size="11" lengthAdjust="spacingAndGlyphs" textLength="14" x="731.25" y="447.8159">no</text><rect fill="#FEFECE" filter="url(#f1gehtex9bwchy)" height="33.9688" rx="12.5" ry="12.5" style="stroke: #A80036; stroke-width: 1.5;" width="206" x="430" y="472.4102"/><text fill="#000000" font-family="sans-serif" font-size="12" lengthAdjust="spacingAndGlyphs" textLength="186" x="440" y="493.5488">Copy packages to spack-repo</text><rect fill="#FEFECE" filter="url(#f1gehtex9bwchy)" height="33.9688" rx="12.5" ry="12.5" style="stroke: #A80036; stroke-width: 1.5;" width="211" x="656" y="472.4102"/><text fill="#000000" font-family="sans-serif" font-size="12" lengthAdjust="spacingAndGlyphs" textLength="191" x="666" y="493.5488">Continue to check official repo</text><polygon fill="#FEFECE" filter="url(#f1gehtex9bwchy)" points="647.25,512.3789,659.25,524.3789,647.25,536.3789,635.25,524.3789,647.25,512.3789" style="stroke: #A80036; stroke-width: 1.5;"/><rect fill="#FEFECE" filter="url(#f1gehtex9bwchy)" height="33.9688" rx="12.5" ry="12.5" style="stroke: #A80036; stroke-width: 1.5;" width="211" x="897" y="382.2773"/><text fill="#000000" font-family="sans-serif" font-size="12" lengthAdjust="spacingAndGlyphs" textLength="191" x="907" y="403.416">Continue to check official repo</text><polygon fill="#FEFECE" filter="url(#f1gehtex9bwchy)" points="824.875,542.3789,836.875,554.3789,824.875,566.3789,812.875,554.3789,824.875,542.3789" style="stroke: #A80036; stroke-width: 1.5;"/><rect fill="#FEFECE" filter="url(#f1gehtex9bwchy)" height="33.9688" rx="12.5" ry="12.5" style="stroke: #A80036; stroke-width: 1.5;" width="308" x="670.875" y="586.3789"/><text fill="#000000" font-family="sans-serif" font-size="12" lengthAdjust="spacingAndGlyphs" textLength="288" x="680.875" y="607.5176">Run create function (copies from official repo)</text><polygon fill="#FEFECE" filter="url(#f1gehtex9bwchy)" points="758.375,640.3477,891.375,640.3477,903.375,652.3477,891.375,664.3477,758.375,664.3477,746.375,652.3477,758.375,640.3477" style="stroke: #A80036; stroke-width: 1.5;"/><text fill="#000000" font-family="sans-serif" font-size="11" lengthAdjust="spacingAndGlyphs" textLength="133" x="758.375" y="656.1558">Found in official Spack?</text><text fill="#000000" font-family="sans-serif" font-size="11" lengthAdjust="spacingAndGlyphs" textLength="20" x="726.375" y="649.7534">yes</text><text fill="#000000" font-family="sans-serif" font-size="11" lengthAdjust="spacingAndGlyphs" textLength="14" x="903.375" y="649.7534">no</text><rect fill="#FEFECE" filter="url(#f1gehtex9bwchy)" height="33.9688" rx="12.5" ry="12.5" style="stroke: #A80036; stroke-width: 1.5;" width="185" x="550.375" y="674.3477"/><text fill="#000000" font-family="sans-serif" font-size="12" lengthAdjust="spacingAndGlyphs" textLength="165" x="560.375" y="695.4863">Use official recipe as base</text><polygon fill="#FEFECE" filter="url(#f1gehtex9bwchy)" points="951.375,674.3477,1062.375,674.3477,1074.375,686.3477,1062.375,698.3477,951.375,698.3477,939.375,686.3477,951.375,674.3477" style="stroke: #A80036; stroke-width: 1.5;"/><text fill="#000000" font-family="sans-serif" font-size="11" lengthAdjust="spacingAndGlyphs" textLength="111" x="951.375" y="690.1558">Has releases/tags?</text><text fill="#000000" font-family="sans-serif" font-size="11" lengthAdjust="spacingAndGlyphs" textLength="20" x="919.375" y="683.7534">yes</text><text fill="#000000" font-family="sans-serif" font-size="11" lengthAdjust="spacingAndGlyphs" textLength="14" x="1074.375" y="683.7534">no</text><rect fill="#FEFECE" filter="url(#f1gehtex9bwchy)" height="33.9688" rx="12.5" ry="12.5" style="stroke: #A80036; stroke-width: 1.5;" width="237" x="765.375" y="708.3477"/><text fill="#000000" font-family="sans-serif" font-size="12" lengthAdjust="spacingAndGlyphs" textLength="217" x="775.375" y="729.4863">Create recipe from release archive</text><rect fill="#FEFECE" filter="url(#f1gehtex9bwchy)" height="33.9688" rx="12.5" ry="12.5" style="stroke: #A80036; stroke-width: 1.5;" width="215" x="1022.375" y="708.3477"/><text fill="#000000" font-family="sans-serif" font-size="12" lengthAdjust="spacingAndGlyphs" textLength="195" x="1032.375" y="729.4863">Create recipe from commit SHA</text><polygon fill="#FEFECE" filter="url(#f1gehtex9bwchy)" points="1006.875,748.3164,1018.875,760.3164,1006.875,772.3164,994.875,760.3164,1006.875,748.3164" style="stroke: #A80036; stroke-width: 1.5;"/><polygon fill="#FEFECE" filter="url(#f1gehtex9bwchy)" points="824.875,778.3164,836.875,790.3164,824.875,802.3164,812.875,790.3164,824.875,778.3164" style="stroke: #A80036; stroke-width: 1.5;"/><rect fill="#FEFECE" filter="url(#f1gehtex9bwchy)" height="33.9688" rx="12.5" ry="12.5" style="stroke: #A80036; stroke-width: 1.5;" width="205" x="722.375" y="822.3164"/><text fill="#000000" font-family="sans-serif" font-size="12" lengthAdjust="spacingAndGlyphs" textLength="185" x="732.375" y="843.4551">Gather info and modify recipe</text><polygon fill="#FEFECE" filter="url(#f1gehtex9bwchy)" points="518.9375,862.2852,530.9375,874.2852,518.9375,886.2852,506.9375,874.2852,518.9375,862.2852" style="stroke: #A80036; stroke-width: 1.5;"/><rect fill="#FEFECE" filter="url(#f1gehtex9bwchy)" height="33.9688" rx="12.5" ry="12.5" style="stroke: #A80036; stroke-width: 1.5;" width="169" x="434.4375" y="950.2852"/><text fill="#000000" font-family="sans-serif" font-size="12" lengthAdjust="spacingAndGlyphs" textLength="149" x="444.4375" y="971.4238">Run spack install {pkg}</text><polygon fill="#FEFECE" filter="url(#f1gehtex9bwchy)" points="469.4375,1004.2539,568.4375,1004.2539,580.4375,1016.2539,568.4375,1028.2539,469.4375,1028.2539,457.4375,1016.2539,469.4375,1004.2539" style="stroke: #A80036; stroke-width: 1.5;"/><text fill="#000000" font-family="sans-serif" font-size="11" lengthAdjust="spacingAndGlyphs" textLength="99" x="469.4375" y="1020.062">Build successful?</text><text fill="#000000" font-family="sans-serif" font-size="11" lengthAdjust="spacingAndGlyphs" textLength="14" x="443.4375" y="1013.6597">no</text><text fill="#000000" font-family="sans-serif" font-size="11" lengthAdjust="spacingAndGlyphs" textLength="20" x="580.4375" y="1013.6597">yes</text><rect fill="#FEFECE" filter="url(#f1gehtex9bwchy)" height="33.9688" rx="12.5" ry="12.5" style="stroke: #A80036; stroke-width: 1.5;" width="184" x="272.1875" y="1038.2539"/><text fill="#000000" font-family="sans-serif" font-size="12" lengthAdjust="spacingAndGlyphs" textLength="164" x="282.1875" y="1059.3926">Fix recipe based on errors</text><rect fill="#FEFECE" filter="url(#f1gehtex9bwchy)" height="33.9688" rx="12.5" ry="12.5" style="stroke: #A80036; stroke-width: 1.5;" width="205" x="571.1875" y="1038.2539"/><text fill="#000000" font-family="sans-serif" font-size="12" lengthAdjust="spacingAndGlyphs" textLength="185" x="581.1875" y="1059.3926">Run validation with singularity</text><polygon fill="#FEFECE" filter="url(#f1gehtex9bwchy)" points="610.6875,1092.2227,736.6875,1092.2227,748.6875,1104.2227,736.6875,1116.2227,610.6875,1116.2227,598.6875,1104.2227,610.6875,1092.2227" style="stroke: #A80036; stroke-width: 1.5;"/><text fill="#000000" font-family="sans-serif" font-size="11" lengthAdjust="spacingAndGlyphs" textLength="126" x="610.6875" y="1108.0308">Validation successful?</text><text fill="#000000" font-family="sans-serif" font-size="11" lengthAdjust="spacingAndGlyphs" textLength="14" x="584.6875" y="1101.6284">no</text><text fill="#000000" font-family="sans-serif" font-size="11" lengthAdjust="spacingAndGlyphs" textLength="20" x="748.6875" y="1101.6284">yes</text><rect fill="#FEFECE" filter="url(#f1gehtex9bwchy)" height="33.9688" rx="12.5" ry="12.5" style="stroke: #A80036; stroke-width: 1.5;" width="162" x="486.1875" y="1126.2227"/><text fill="#000000" font-family="sans-serif" font-size="12" lengthAdjust="spacingAndGlyphs" textLength="142" x="496.1875" y="1147.3613">Uninstall and fix recipe</text><rect fill="#FEFECE" filter="url(#f1gehtex9bwchy)" height="33.9688" rx="12.5" ry="12.5" style="stroke: #A80036; stroke-width: 1.5;" width="224" x="668.1875" y="1126.2227"/><text fill="#000000" font-family="sans-serif" font-size="12" lengthAdjust="spacingAndGlyphs" textLength="204" x="678.1875" y="1147.3613">Create PR and wait for validation</text><ellipse cx="780.1875" cy="1191.1914" fill="#FFFFFF" filter="url(#f1gehtex9bwchy)" rx="11" ry="11" style="stroke: #000000; stroke-width: 1.0;"/><ellipse cx="780.1875" cy="1191.1914" fill="#000000" rx="6" ry="6" style="stroke: #7F7F7F; stroke-width: 1.0;"/><polygon fill="#FEFECE" filter="url(#f1gehtex9bwchy)" points="518.9375,1212.1914,530.9375,1224.1914,518.9375,1236.1914,506.9375,1224.1914,518.9375,1212.1914" style="stroke: #A80036; stroke-width: 1.5;"/><polygon fill="#FEFECE" filter="url(#f1gehtex9bwchy)" points="518.9375,906.2852,530.9375,918.2852,518.9375,930.2852,506.9375,918.2852,518.9375,906.2852" style="stroke: #A80036; stroke-width: 1.5;"/><polygon fill="#FEFECE" filter="url(#f1gehtex9bwchy)" points="430.4375,1256.1914,607.4375,1256.1914,619.4375,1268.1914,607.4375,1280.1914,430.4375,1280.1914,418.4375,1268.1914,430.4375,1256.1914" style="stroke: #A80036; stroke-width: 1.5;"/><text fill="#000000" font-family="sans-serif" font-size="11" lengthAdjust="spacingAndGlyphs" textLength="177" x="430.4375" y="1271.9995">Installation or validation failed?</text><line style="stroke: #A80036; stroke-width: 1.5;" x1="518.9375" x2="518.9375" y1="30" y2="50"/><polygon fill="#A80036" points="514.9375,40,518.9375,50,522.9375,40,518.9375,44" style="stroke: #A80036; stroke-width: 1.0;"/><line style="stroke: #A80036; stroke-width: 1.5;" x1="518.9375" x2="518.9375" y1="83.9688" y2="103.9688"/><polygon fill="#A80036" points="514.9375,93.9688,518.9375,103.9688,522.9375,93.9688,518.9375,97.9688" style="stroke: #A80036; stroke-width: 1.0;"/><line style="stroke: #A80036; stroke-width: 1.5;" x1="115.5" x2="115.5" y1="259.9063" y2="294.3086"/><polygon fill="#A80036" points="111.5,284.3086,115.5,294.3086,119.5,284.3086,115.5,288.3086" style="stroke: #A80036; stroke-width: 1.0;"/><line style="stroke: #A80036; stroke-width: 1.5;" x1="115.5" x2="115.5" y1="328.2773" y2="354.4414"/><polygon fill="#A80036" points="111.5,344.4414,115.5,354.4414,119.5,344.4414,115.5,348.4414" style="stroke: #A80036; stroke-width: 1.0;"/><line style="stroke: #A80036; stroke-width: 1.5;" x1="137" x2="115.5" y1="203.9375" y2="203.9375"/><line style="stroke: #A80036; stroke-width: 1.5;" x1="115.5" x2="115.5" y1="203.9375" y2="225.9375"/><polygon fill="#A80036" points="111.5,215.9375,115.5,225.9375,119.5,215.9375,115.5,219.9375" style="stroke: #A80036; stroke-width: 1.0;"/><line style="stroke: #A80036; stroke-width: 1.5;" x1="289" x2="310.5" y1="203.9375" y2="203.9375"/><line style="stroke: #A80036; stroke-width: 1.5;" x1="310.5" x2="310.5" y1="203.9375" y2="225.9375"/><polygon fill="#A80036" points="306.5,215.9375,310.5,225.9375,314.5,215.9375,310.5,219.9375" style="stroke: #A80036; stroke-width: 1.0;"/><line style="stroke: #A80036; stroke-width: 1.5;" x1="115.5" x2="115.5" y1="388.4102" y2="406.4102"/><line style="stroke: #A80036; stroke-width: 1.5;" x1="115.5" x2="201" y1="406.4102" y2="406.4102"/><polygon fill="#A80036" points="191,402.4102,201,406.4102,191,410.4102,195,406.4102" style="stroke: #A80036; stroke-width: 1.0;"/><line style="stroke: #A80036; stroke-width: 1.5;" x1="310.5" x2="310.5" y1="259.9063" y2="406.4102"/><line style="stroke: #A80036; stroke-width: 1.5;" x1="310.5" x2="225" y1="406.4102" y2="406.4102"/><polygon fill="#A80036" points="235,402.4102,225,406.4102,235,410.4102,231,406.4102" style="stroke: #A80036; stroke-width: 1.0;"/><line style="stroke: #A80036; stroke-width: 1.5;" x1="824.875" x2="824.875" y1="215.9375" y2="240.3398"/><polygon fill="#A80036" points="820.875,230.3398,824.875,240.3398,828.875,230.3398,824.875,234.3398" style="stroke: #A80036; stroke-width: 1.0;"/><line style="stroke: #A80036; stroke-width: 1.5;" x1="898.875" x2="933.375" y1="203.9375" y2="203.9375"/><polygon fill="#A80036" points="929.375,247.3242,933.375,257.3242,937.375,247.3242,933.375,251.3242" style="stroke: #A80036; stroke-width: 1.5;"/><line style="stroke: #A80036; stroke-width: 1.5;" x1="933.375" x2="933.375" y1="203.9375" y2="310.1133"/><line style="stroke: #A80036; stroke-width: 1.5;" x1="933.375" x2="836.875" y1="310.1133" y2="310.1133"/><polygon fill="#A80036" points="846.875,306.1133,836.875,310.1133,846.875,314.1133,842.875,310.1133" style="stroke: #A80036; stroke-width: 1.0;"/><line style="stroke: #A80036; stroke-width: 1.5;" x1="824.875" x2="824.875" y1="274.3086" y2="298.1133"/><polygon fill="#A80036" points="820.875,288.1133,824.875,298.1133,828.875,288.1133,824.875,292.1133" style="stroke: #A80036; stroke-width: 1.0;"/><line style="stroke: #A80036; stroke-width: 1.5;" x1="563.25" x2="533" y1="450.4102" y2="450.4102"/><line style="stroke: #A80036; stroke-width: 1.5;" x1="533" x2="533" y1="450.4102" y2="472.4102"/><polygon fill="#A80036" points="529,462.4102,533,472.4102,537,462.4102,533,466.4102" style="stroke: #A80036; stroke-width: 1.0;"/><line style="stroke: #A80036; stroke-width: 1.5;" x1="731.25" x2="761.5" y1="450.4102" y2="450.4102"/><line style="stroke: #A80036; stroke-width: 1.5;" x1="761.5" x2="761.5" y1="450.4102" y2="472.4102"/><polygon fill="#A80036" points="757.5,462.4102,761.5,472.4102,765.5,462.4102,761.5,466.4102" style="stroke: #A80036; stroke-width: 1.0;"/><line style="stroke: #A80036; stroke-width: 1.5;" x1="533" x2="533" y1="506.3789" y2="524.3789"/><line style="stroke: #A80036; stroke-width: 1.5;" x1="533" x2="635.25" y1="524.3789" y2="524.3789"/><polygon fill="#A80036" points="625.25,520.3789,635.25,524.3789,625.25,528.3789,629.25,524.3789" style="stroke: #A80036; stroke-width: 1.0;"/><line style="stroke: #A80036; stroke-width: 1.5;" x1="761.5" x2="761.5" y1="506.3789" y2="524.3789"/><line style="stroke: #A80036; stroke-width: 1.5;" x1="761.5" x2="659.25" y1="524.3789" y2="524.3789"/><polygon fill="#A80036" points="669.25,520.3789,659.25,524.3789,669.25,528.3789,665.25,524.3789" style="stroke: #A80036; stroke-width: 1.0;"/><line style="stroke: #A80036; stroke-width: 1.5;" x1="647.25" x2="647.25" y1="416.2461" y2="438.4102"/><polygon fill="#A80036" points="643.25,428.4102,647.25,438.4102,651.25,428.4102,647.25,432.4102" style="stroke: #A80036; stroke-width: 1.0;"/><line style="stroke: #A80036; stroke-width: 1.5;" x1="765.375" x2="647.25" y1="360.2773" y2="360.2773"/><line style="stroke: #A80036; stroke-width: 1.5;" x1="647.25" x2="647.25" y1="360.2773" y2="382.2773"/><polygon fill="#A80036" points="643.25,372.2773,647.25,382.2773,651.25,372.2773,647.25,376.2773" style="stroke: #A80036; stroke-width: 1.0;"/><line style="stroke: #A80036; stroke-width: 1.5;" x1="884.375" x2="1002.5" y1="360.2773" y2="360.2773"/><line style="stroke: #A80036; stroke-width: 1.5;" x1="1002.5" x2="1002.5" y1="360.2773" y2="382.2773"/><polygon fill="#A80036" points="998.5,372.2773,1002.5,382.2773,1006.5,372.2773,1002.5,376.2773" style="stroke: #A80036; stroke-width: 1.0;"/><line style="stroke: #A80036; stroke-width: 1.5;" x1="647.25" x2="647.25" y1="536.3789" y2="554.3789"/><line style="stroke: #A80036; stroke-width: 1.5;" x1="647.25" x2="812.875" y1="554.3789" y2="554.3789"/><polygon fill="#A80036" points="802.875,550.3789,812.875,554.3789,802.875,558.3789,806.875,554.3789" style="stroke: #A80036; stroke-width: 1.0;"/><line style="stroke: #A80036; stroke-width: 1.5;" x1="1002.5" x2="1002.5" y1="416.2461" y2="554.3789"/><line style="stroke: #A80036; stroke-width: 1.5;" x1="1002.5" x2="836.875" y1="554.3789" y2="554.3789"/><polygon fill="#A80036" points="846.875,550.3789,836.875,554.3789,846.875,558.3789,842.875,554.3789" style="stroke: #A80036; stroke-width: 1.0;"/><line style="stroke: #A80036; stroke-width: 1.5;" x1="824.875" x2="824.875" y1="322.1133" y2="348.2773"/><polygon fill="#A80036" points="820.875,338.2773,824.875,348.2773,828.875,338.2773,824.875,342.2773" style="stroke: #A80036; stroke-width: 1.0;"/><line style="stroke: #A80036; stroke-width: 1.5;" x1="824.875" x2="824.875" y1="566.3789" y2="586.3789"/><polygon fill="#A80036" points="820.875,576.3789,824.875,586.3789,828.875,576.3789,824.875,580.3789" style="stroke: #A80036; stroke-width: 1.0;"/><line style="stroke: #A80036; stroke-width: 1.5;" x1="939.375" x2="883.875" y1="686.3477" y2="686.3477"/><line style="stroke: #A80036; stroke-width: 1.5;" x1="883.875" x2="883.875" y1="686.3477" y2="708.3477"/><polygon fill="#A80036" points="879.875,698.3477,883.875,708.3477,887.875,698.3477,883.875,702.3477" style="stroke: #A80036; stroke-width: 1.0;"/><line style="stroke: #A80036; stroke-width: 1.5;" x1="1074.375" x2="1129.875" y1="686.3477" y2="686.3477"/><line style="stroke: #A80036; stroke-width: 1.5;" x1="1129.875" x2="1129.875" y1="686.3477" y2="708.3477"/><polygon fill="#A80036" points="1125.875,698.3477,1129.875,708.3477,1133.875,698.3477,1129.875,702.3477" style="stroke: #A80036; stroke-width: 1.0;"/><line style="stroke: #A80036; stroke-width: 1.5;" x1="883.875" x2="883.875" y1="742.3164" y2="760.3164"/><line style="stroke: #A80036; stroke-width: 1.5;" x1="883.875" x2="994.875" y1="760.3164" y2="760.3164"/><polygon fill="#A80036" points="984.875,756.3164,994.875,760.3164,984.875,764.3164,988.875,760.3164" style="stroke: #A80036; stroke-width: 1.0;"/><line style="stroke: #A80036; stroke-width: 1.5;" x1="1129.875" x2="1129.875" y1="742.3164" y2="760.3164"/><line style="stroke: #A80036; stroke-width: 1.5;" x1="1129.875" x2="1018.875" y1="760.3164" y2="760.3164"/><polygon fill="#A80036" points="1028.875,756.3164,1018.875,760.3164,1028.875,764.3164,1024.875,760.3164" style="stroke: #A80036; stroke-width: 1.0;"/><line style="stroke: #A80036; stroke-width: 1.5;" x1="746.375" x2="642.875" y1="652.3477" y2="652.3477"/><line style="stroke: #A80036; stroke-width: 1.5;" x1="642.875" x2="642.875" y1="652.3477" y2="674.3477"/><polygon fill="#A80036" points="638.875,664.3477,642.875,674.3477,646.875,664.3477,642.875,668.3477" style="stroke: #A80036; stroke-width: 1.0;"/><line style="stroke: #A80036; stroke-width: 1.5;" x1="903.375" x2="1006.875" y1="652.3477" y2="652.3477"/><line style="stroke: #A80036; stroke-width: 1.5;" x1="1006.875" x2="1006.875" y1="652.3477" y2="674.3477"/><polygon fill="#A80036" points="1002.875,664.3477,1006.875,674.3477,1010.875,664.3477,1006.875,668.3477" style="stroke: #A80036; stroke-width: 1.0;"/><line style="stroke: #A80036; stroke-width: 1.5;" x1="642.875" x2="642.875" y1="708.3164" y2="790.3164"/><line style="stroke: #A80036; stroke-width: 1.5;" x1="642.875" x2="812.875" y1="790.3164" y2="790.3164"/><polygon fill="#A80036" points="802.875,786.3164,812.875,790.3164,802.875,794.3164,806.875,790.3164" style="stroke: #A80036; stroke-width: 1.0;"/><line style="stroke: #A80036; stroke-width: 1.5;" x1="1006.875" x2="1006.875" y1="772.3164" y2="790.3164"/><line style="stroke: #A80036; stroke-width: 1.5;" x1="1006.875" x2="836.875" y1="790.3164" y2="790.3164"/><polygon fill="#A80036" points="846.875,786.3164,836.875,790.3164,846.875,794.3164,842.875,790.3164" style="stroke: #A80036; stroke-width: 1.0;"/><line style="stroke: #A80036; stroke-width: 1.5;" x1="824.875" x2="824.875" y1="620.3477" y2="640.3477"/><polygon fill="#A80036" points="820.875,630.3477,824.875,640.3477,828.875,630.3477,824.875,634.3477" style="stroke: #A80036; stroke-width: 1.0;"/><line style="stroke: #A80036; stroke-width: 1.5;" x1="824.875" x2="824.875" y1="802.3164" y2="822.3164"/><polygon fill="#A80036" points="820.875,812.3164,824.875,822.3164,828.875,812.3164,824.875,816.3164" style="stroke: #A80036; stroke-width: 1.0;"/><line style="stroke: #A80036; stroke-width: 1.5;" x1="466.4375" x2="213" y1="169.9375" y2="169.9375"/><line style="stroke: #A80036; stroke-width: 1.5;" x1="213" x2="213" y1="169.9375" y2="191.9375"/><polygon fill="#A80036" points="209,181.9375,213,191.9375,217,181.9375,213,185.9375" style="stroke: #A80036; stroke-width: 1.0;"/><line style="stroke: #A80036; stroke-width: 1.5;" x1="571.4375" x2="824.875" y1="169.9375" y2="169.9375"/><line style="stroke: #A80036; stroke-width: 1.5;" x1="824.875" x2="824.875" y1="169.9375" y2="191.9375"/><polygon fill="#A80036" points="820.875,181.9375,824.875,191.9375,828.875,181.9375,824.875,185.9375" style="stroke: #A80036; stroke-width: 1.0;"/><line style="stroke: #A80036; stroke-width: 1.5;" x1="213" x2="213" y1="418.4102" y2="874.2852"/><line style="stroke: #A80036; stroke-width: 1.5;" x1="213" x2="506.9375" y1="874.2852" y2="874.2852"/><polygon fill="#A80036" points="496.9375,870.2852,506.9375,874.2852,496.9375,878.2852,500.9375,874.2852" style="stroke: #A80036; stroke-width: 1.0;"/><line style="stroke: #A80036; stroke-width: 1.5;" x1="824.875" x2="824.875" y1="856.2852" y2="874.2852"/><line style="stroke: #A80036; stroke-width: 1.5;" x1="824.875" x2="530.9375" y1="874.2852" y2="874.2852"/><polygon fill="#A80036" points="540.9375,870.2852,530.9375,874.2852,540.9375,878.2852,536.9375,874.2852" style="stroke: #A80036; stroke-width: 1.0;"/><line style="stroke: #A80036; stroke-width: 1.5;" x1="518.9375" x2="518.9375" y1="137.9375" y2="157.9375"/><polygon fill="#A80036" points="514.9375,147.9375,518.9375,157.9375,522.9375,147.9375,518.9375,151.9375" style="stroke: #A80036; stroke-width: 1.0;"/><line style="stroke: #A80036; stroke-width: 1.5;" x1="780.1875" x2="780.1875" y1="1160.1914" y2="1180.1914"/><polygon fill="#A80036" points="776.1875,1170.1914,780.1875,1180.1914,784.1875,1170.1914,780.1875,1174.1914" style="stroke: #A80036; stroke-width: 1.0;"/><line style="stroke: #A80036; stroke-width: 1.5;" x1="598.6875" x2="567.1875" y1="1104.2227" y2="1104.2227"/><line style="stroke: #A80036; stroke-width: 1.5;" x1="567.1875" x2="567.1875" y1="1104.2227" y2="1126.2227"/><polygon fill="#A80036" points="563.1875,1116.2227,567.1875,1126.2227,571.1875,1116.2227,567.1875,1120.2227" style="stroke: #A80036; stroke-width: 1.0;"/><line style="stroke: #A80036; stroke-width: 1.5;" x1="748.6875" x2="780.1875" y1="1104.2227" y2="1104.2227"/><line style="stroke: #A80036; stroke-width: 1.5;" x1="780.1875" x2="780.1875" y1="1104.2227" y2="1126.2227"/><polygon fill="#A80036" points="776.1875,1116.2227,780.1875,1126.2227,784.1875,1116.2227,780.1875,1120.2227" style="stroke: #A80036; stroke-width: 1.0;"/><line style="stroke: #A80036; stroke-width: 1.5;" x1="567.1875" x2="567.1875" y1="1160.1914" y2="1224.1914"/><line style="stroke: #A80036; stroke-width: 1.5;" x1="567.1875" x2="530.9375" y1="1224.1914" y2="1224.1914"/><polygon fill="#A80036" points="540.9375,1220.1914,530.9375,1224.1914,540.9375,1228.1914,536.9375,1224.1914" style="stroke: #A80036; stroke-width: 1.0;"/><line style="stroke: #A80036; stroke-width: 1.5;" x1="673.6875" x2="673.6875" y1="1072.2227" y2="1092.2227"/><polygon fill="#A80036" points="669.6875,1082.2227,673.6875,1092.2227,677.6875,1082.2227,673.6875,1086.2227" style="stroke: #A80036; stroke-width: 1.0;"/><line style="stroke: #A80036; stroke-width: 1.5;" x1="457.4375" x2="364.1875" y1="1016.2539" y2="1016.2539"/><line style="stroke: #A80036; stroke-width: 1.5;" x1="364.1875" x2="364.1875" y1="1016.2539" y2="1038.2539"/><polygon fill="#A80036" points="360.1875,1028.2539,364.1875,1038.2539,368.1875,1028.2539,364.1875,1032.2539" style="stroke: #A80036; stroke-width: 1.0;"/><line style="stroke: #A80036; stroke-width: 1.5;" x1="580.4375" x2="673.6875" y1="1016.2539" y2="1016.2539"/><line style="stroke: #A80036; stroke-width: 1.5;" x1="673.6875" x2="673.6875" y1="1016.2539" y2="1038.2539"/><polygon fill="#A80036" points="669.6875,1028.2539,673.6875,1038.2539,677.6875,1028.2539,673.6875,1032.2539" style="stroke: #A80036; stroke-width: 1.0;"/><line style="stroke: #A80036; stroke-width: 1.5;" x1="364.1875" x2="364.1875" y1="1072.2227" y2="1224.1914"/><line style="stroke: #A80036; stroke-width: 1.5;" x1="364.1875" x2="506.9375" y1="1224.1914" y2="1224.1914"/><polygon fill="#A80036" points="496.9375,1220.1914,506.9375,1224.1914,496.9375,1228.1914,500.9375,1224.1914" style="stroke: #A80036; stroke-width: 1.0;"/><line style="stroke: #A80036; stroke-width: 1.5;" x1="518.9375" x2="518.9375" y1="984.2539" y2="1004.2539"/><polygon fill="#A80036" points="514.9375,994.2539,518.9375,1004.2539,522.9375,994.2539,518.9375,998.2539" style="stroke: #A80036; stroke-width: 1.0;"/><line style="stroke: #A80036; stroke-width: 1.5;" x1="518.9375" x2="518.9375" y1="930.2852" y2="950.2852"/><polygon fill="#A80036" points="514.9375,940.2852,518.9375,950.2852,522.9375,940.2852,518.9375,944.2852" style="stroke: #A80036; stroke-width: 1.0;"/><line style="stroke: #A80036; stroke-width: 1.5;" x1="619.4375" x2="924.1875" y1="1268.1914" y2="1268.1914"/><polygon fill="#A80036" points="920.1875,1096.7383,924.1875,1086.7383,928.1875,1096.7383,924.1875,1092.7383" style="stroke: #A80036; stroke-width: 1.5;"/><line style="stroke: #A80036; stroke-width: 1.5;" x1="924.1875" x2="924.1875" y1="918.2852" y2="1268.1914"/><line style="stroke: #A80036; stroke-width: 1.5;" x1="924.1875" x2="530.9375" y1="918.2852" y2="918.2852"/><polygon fill="#A80036" points="540.9375,914.2852,530.9375,918.2852,540.9375,922.2852,536.9375,918.2852" style="stroke: #A80036; stroke-width: 1.0;"/><line style="stroke: #A80036; stroke-width: 1.5;" x1="518.9375" x2="518.9375" y1="1236.1914" y2="1256.1914"/><polygon fill="#A80036" points="514.9375,1246.1914,518.9375,1256.1914,522.9375,1246.1914,518.9375,1250.1914" style="stroke: #A80036; stroke-width: 1.0;"/><line style="stroke: #A80036; stroke-width: 1.5;" x1="518.9375" x2="518.9375" y1="886.2852" y2="906.2852"/><polygon fill="#A80036" points="514.9375,896.2852,518.9375,906.2852,522.9375,896.2852,518.9375,900.2852" style="stroke: #A80036; stroke-width: 1.0;"/><!--MD5=[c3c0cacddba99d1b99345277ae6041cc]
@startuml Spack Package Creation Process

start

:Receive package request;

:Check if recipe exists in packages/ (py-/r- prefix for Python/R);

if (Recipe exists?) then (yes)
  if (Need specific version?) then (yes)
    :Run spack versions {pkg};
    :Run spack checksum -b {pkg};
    :Modify recipe with new version;
  else (no)
    :Use existing recipe;
  endif
else (no)
  if (Prompt contains URL?) then (yes)
    :Visit and review URL content;
  endif
  
  if (Python package?) then (yes)
    :Run PyPackageCreator.py;
    
    if (PyPI creation successful?) then (yes)
      :Copy packages to spack-repo;
    else (no)
      :Continue to check official repo;
    endif
  else (no)
    :Continue to check official repo;
  endif
  
  :Run create function (copies from official repo);
  
  if (Found in official Spack?) then (yes)
    :Use official recipe as base;
  else (no)
    if (Has releases/tags?) then (yes)
      :Create recipe from release archive;
    else (no)
      :Create recipe from commit SHA;
    endif
  endif
  
  :Gather info and modify recipe;
endif

repeat
  :Run spack install {pkg};
  
  if (Build successful?) then (no)
    :Fix recipe based on errors;
  else (yes)
    :Run validation with singularity;
    
    if (Validation successful?) then (no)
      :Uninstall and fix recipe;
    else (yes)
      :Create PR and wait for validation;
      stop
    endif
  endif
repeat while (Installation or validation failed?)

@enduml 

PlantUML version 1.2020.02(Sun Mar 01 10:22:07 UTC 2020)
(GPL source distribution)
Java Runtime: OpenJDK Runtime Environment
JVM: OpenJDK 64-Bit Server VM
Java Version: 11.0.27+6-post-Ubuntu-0ubuntu122.04
Operating System: Linux
Default Encoding: UTF-8
Language: en
Country: null
--></g></svg>